<?xml version="1.0" standalone="no"?>
<!DOCTYPE svg PUBLIC "-//W3C//DTD SVG 20010904//EN"
 "http://www.w3.org/TR/2001/REC-SVG-20010904/DTD/svg10.dtd">
<svg version="1.0" xmlns="http://www.w3.org/2000/svg"
 width="1200.000000pt" height="1200.000000pt" viewBox="0 0 1200.000000 1200.000000"
 preserveAspectRatio="xMidYMid meet">
<metadata>
Created by potrace 1.14, written by Peter Selinger 2001-2017
</metadata>
<g transform="translate(0.000000,1200.000000) scale(0.100000,-0.100000)"
fill="#000000" stroke="none">
<path d="M1 6908 c1 -5400 0 -5188 46 -5383 4 -16 7 -32 8 -35 1 -3 5 -23 10
-45 15 -77 77 -241 136 -364 288 -595 875 -1002 1539 -1069 41 -4 426 -7 855
-7 l780 0 48 24 c106 55 169 151 173 266 5 142 -83 270 -210 307 -30 9 -235
13 -776 14 -794 2 -820 3 -975 39 -299 69 -562 239 -753 487 -138 180 -239
448 -258 685 -11 138 -10 7813 1 7814 6 1 26 2 45 3 19 0 41 5 49 10 9 6 12 5
8 -1 -8 -13 932 -12 952 1 9 6 12 5 8 -1 -8 -13 932 -12 952 1 9 6 12 5 8 -1
-8 -13 932 -12 952 1 9 6 12 5 8 -1 -8 -13 932 -12 952 1 9 6 12 5 7 -2 -8
-13 532 -11 553 2 10 6 12 5 7 -2 -8 -14 211 -12 233 2 10 6 12 5 7 -3 -9 -14
290 -11 313 3 10 6 12 5 7 -3 -10 -15 292 -12 313 3 11 8 13 8 7 -2 -6 -10 24
-12 146 -9 84 1 159 6 167 11 10 6 12 5 7 -3 -10 -15 292 -12 313 3 11 8 13 8
7 -2 -6 -10 24 -12 146 -9 84 1 159 6 167 11 10 6 12 5 7 -3 -10 -15 292 -12
313 3 11 8 13 8 7 -2 -6 -10 24 -12 146 -9 84 1 159 6 167 11 9 6 12 5 8 -1
-8 -13 772 -12 792 1 9 6 12 5 8 -1 -8 -13 932 -12 952 1 9 6 12 5 8 -1 -8
-13 932 -12 952 1 9 6 12 5 8 -1 -8 -13 932 -12 952 1 10 7 12 6 6 -4 -6 -9 4
-11 44 -9 28 2 51 2 51 -1 5 -47 1 -7779 -4 -7812 -3 -27 -9 -69 -12 -95 -19
-156 -110 -396 -199 -523 -77 -110 -91 -126 -180 -215 -98 -97 -172 -151 -299
-220 -67 -37 -263 -116 -281 -114 -3 0 -29 -5 -58 -10 -88 -19 -99 -20 -172
-27 -38 -4 -392 -7 -785 -7 -738 0 -759 -1 -837 -41 -43 -23 -101 -89 -126
-145 -27 -61 -31 -161 -9 -224 25 -70 78 -131 147 -169 l60 -33 780 -2 c429
-1 816 3 860 8 732 82 1351 558 1606 1234 22 61 42 117 44 125 2 8 11 43 20
77 18 68 20 81 34 163 6 30 13 71 18 90 4 19 9 2345 10 5168 l3 5132 -6000 0
-6000 0 1 -5092z"/>
<path d="M3417 9314 c-1 -1 -30 -5 -64 -8 -116 -12 -148 -18 -258 -46 -109
-29 -269 -88 -312 -116 -13 -8 -23 -12 -23 -9 0 15 -259 -157 -328 -218 -106
-94 -125 -124 -124 -193 1 -62 25 -108 74 -142 94 -65 169 -46 294 76 7 6 17
12 23 12 6 0 11 4 11 9 0 22 260 172 340 196 3 1 34 11 70 22 66 21 220 55
236 52 5 -1 11 0 14 1 6 2 79 7 155 9 111 4 313 -17 370 -39 14 -5 25 -7 25
-5 0 5 122 -36 170 -57 104 -44 300 -161 300 -179 0 -5 6 -9 13 -9 6 0 32 -20
57 -44 25 -23 61 -51 80 -61 35 -18 97 -27 115 -16 10 5 15 7 34 10 5 0 25 16
45 35 33 30 65 98 61 131 -6 60 -20 89 -66 135 -51 51 -235 194 -274 211 -11
6 -29 15 -40 22 -28 18 -89 51 -95 52 -3 1 -25 10 -50 22 -52 24 -137 56 -195
74 -22 6 -47 14 -55 17 -8 3 -22 6 -30 8 -8 2 -31 6 -50 10 -19 4 -42 9 -50
10 -8 1 -24 5 -35 7 -58 14 -426 31 -438 21z"/>
<path d="M8377 9314 c-1 -1 -30 -5 -64 -8 -111 -12 -146 -18 -243 -43 -52 -13
-102 -25 -110 -26 -8 -1 -17 -4 -20 -7 -3 -3 -23 -11 -45 -19 -140 -47 -353
-170 -482 -279 -96 -80 -108 -92 -128 -132 -71 -140 81 -304 223 -240 35 16
57 32 116 85 62 56 164 124 251 168 51 26 162 76 170 77 3 0 6 0 8 1 6 2 37
10 112 29 44 11 100 22 125 25 25 2 45 5 45 6 0 1 80 6 150 8 100 4 233 -9
360 -34 56 -11 245 -78 245 -87 0 -4 6 -8 13 -8 12 0 83 -37 142 -73 40 -25
121 -86 160 -122 85 -76 148 -101 215 -82 97 26 151 120 126 222 -27 114 -397
364 -666 450 -47 15 -92 30 -100 33 -8 3 -22 6 -30 8 -8 2 -31 6 -50 10 -19 4
-42 9 -50 10 -8 1 -24 5 -35 7 -58 14 -426 31 -438 21z"/>
<path d="M3484 7780 c-88 -27 -179 -122 -206 -213 -20 -67 -20 -985 0 -1052
24 -84 80 -152 157 -193 67 -36 188 -38 252 -4 76 40 128 102 158 187 16 45
17 101 17 535 0 432 -2 490 -17 535 -29 83 -86 149 -162 186 -50 24 -151 34
-199 19z"/>
<path d="M6227 7776 c-60 -16 -122 -60 -164 -115 -65 -84 -63 -28 -65 -1311
-3 -1117 -4 -1167 -22 -1203 -12 -24 -35 -48 -64 -64 -42 -25 -53 -27 -201
-30 -86 -2 -174 -5 -196 -8 -56 -8 -137 -56 -177 -107 -44 -55 -56 -82 -67
-143 -26 -144 45 -280 179 -344 54 -25 60 -26 260 -26 228 0 303 12 434 67
218 93 384 280 451 511 8 30 19 65 23 78 3 13 8 569 9 1235 3 1203 3 1212 -17
1267 -57 152 -227 237 -383 193z"/>
<path d="M8430 7777 c-19 -8 -46 -19 -60 -24 -36 -15 -105 -93 -132 -150 -23
-48 -23 -49 -26 -538 -2 -355 0 -502 9 -535 25 -96 87 -173 169 -213 65 -31
178 -30 241 1 64 31 114 82 146 150 l28 57 0 515 c0 507 0 516 -22 562 -28 62
-91 128 -147 156 -56 29 -158 38 -206 19z"/>
<path d="M4460 2810 c-124 -22 -215 -144 -199 -268 11 -87 30 -115 158 -232 9
-8 33 -27 53 -42 20 -15 42 -33 50 -40 34 -32 206 -146 285 -190 151 -82 287
-141 428 -184 44 -14 85 -27 90 -28 72 -23 275 -62 370 -72 22 -2 60 -6 85 -9
25 -2 60 -6 78 -9 24 -4 31 -2 26 7 -5 9 -3 9 7 0 7 -7 24 -13 37 -13 16 0 21
4 16 13 -6 9 -4 9 7 1 13 -11 164 -11 264 0 22 2 63 7 92 10 28 2 67 7 85 10
18 3 44 8 58 10 14 2 36 7 50 10 14 3 36 8 50 10 14 3 40 9 58 15 18 5 36 10
40 11 40 5 182 52 297 98 164 66 412 210 527 304 206 170 234 200 258 272 26
82 -7 206 -69 258 -42 36 -102 58 -154 59 -105 3 -115 -3 -302 -166 -42 -37
-241 -168 -295 -194 -25 -12 -52 -26 -60 -30 -8 -5 -26 -13 -40 -19 -14 -6
-45 -20 -70 -30 -46 -20 -137 -51 -155 -53 -5 -1 -20 -5 -33 -10 -12 -5 -33
-11 -45 -13 -12 -3 -32 -7 -44 -10 -87 -22 -167 -34 -268 -43 -83 -7 -317 -6
-390 1 -87 9 -147 16 -170 22 -11 3 -33 7 -50 9 -16 2 -30 4 -30 5 0 1 -7 3
-15 5 -283 58 -616 234 -845 447 -69 65 -152 93 -235 78z"/>
</g>
</svg>
